<?xml version="1.0" encoding="utf-8"?>
<!-- Generator: Adobe Illustrator 21.0.0, SVG Export Plug-In . SVG Version: 6.00 Build 0)  -->
<svg version="1.1" id="Layer_1" xmlns="http://www.w3.org/2000/svg" xmlns:xlink="http://www.w3.org/1999/xlink" x="0px" y="0px"
	 viewBox="0 0 736 765.2" style="enable-background:new 0 0 736 765.2;" xml:space="preserve">
<style type="text/css">
	.st0{fill:#FFFFFF;}
</style>
<g>
	<g>
		<path class="st0" d="M368,34.2c49,0,96.5,9.6,141.3,28.5c43.2,18.3,82,44.5,115.4,77.8s59.5,72.2,77.8,115.4
			c18.9,44.8,28.5,92.3,28.5,141.3s-9.6,96.5-28.5,141.3c-18.3,43.2-44.5,82-77.8,115.4c-33.3,33.3-72.2,59.5-115.4,77.8
			c-44.8,18.9-92.3,28.5-141.3,28.5s-96.5-9.6-141.3-28.5c-43.2-18.3-82-44.5-115.4-77.8C78,620.5,51.8,581.7,33.5,538.5
			C14.6,493.7,5,446.2,5,397.2s9.6-96.5,28.5-141.3c18.3-43.2,44.5-82,77.8-115.4S183.5,81,226.7,62.7C271.5,43.8,319,34.2,368,34.2
			 M368,29.2C164.8,29.2,0,194,0,397.2s164.8,368,368,368s368-164.8,368-368S571.2,29.2,368,29.2L368,29.2z"/>
	</g>
	<g>
		<path class="st0" d="M368,656.5c-34.6,0-68.2-6.8-99.8-20.1c-30.5-12.9-57.9-31.4-81.5-55s-42-51-55-81.5
			c-13.4-31.7-20.1-65.2-20.1-99.8s6.8-68.2,20.1-99.8c12.9-30.5,31.4-57.9,55-81.5c23.5-23.5,51-42,81.5-55
			c31.7-13.4,65.2-20.1,99.8-20.1s68.2,6.8,99.8,20.1c30.5,12.9,57.9,31.4,81.5,55c23.5,23.6,42,51,55,81.5
			c13.4,31.7,20.1,65.2,20.1,99.8s-6.8,68.2-20.1,99.8c-12.9,30.5-31.4,57.9-55,81.5c-23.5,23.6-51,42-81.5,55
			C436.2,649.7,402.6,656.5,368,656.5 M368,660c143.6,0,260-116.4,260-260S511.6,140,368,140S108,256.5,108,400S224.4,660,368,660
			L368,660z"/>
	</g>
	<g>
		<circle class="st0" cx="368" cy="657.2" r="31.8"/>
	</g>
	<g>
		<circle class="st0" cx="688.7" cy="572.5" r="31.8"/>
	</g>
	<g>
		<circle class="st0" cx="47.4" cy="572.5" r="31.8"/>
	</g>
	<g>
		<circle class="st0" cx="368" cy="140" r="31.8"/>
	</g>
	<g>
		<circle class="st0" cx="368" cy="31.8" r="31.8"/>
	</g>
</g>
</svg>
