<?xml version="1.0" encoding="utf-8"?>
<!-- Generator: Adobe Illustrator 21.0.0, SVG Export Plug-In . SVG Version: 6.00 Build 0)  -->
<svg version="1.1" id="Periodic_Table" xmlns="http://www.w3.org/2000/svg" xmlns:xlink="http://www.w3.org/1999/xlink" x="0px"
	 y="0px" viewBox="0 0 314 314" style="enable-background:new 0 0 314 314;" xml:space="preserve">
<style type="text/css">
	.st0{fill:#FFFFFF;}
</style>
<title>Artboard 3</title>
<polygon class="st0" points="-849.5,0 -849.5,88 -847.5,88 -847.5,2 -537.5,2 -537.5,312 -847.5,312 -847.5,226 -849.5,226 
	-849.5,314 -535.5,314 -535.5,0 "/>
<text transform="matrix(1 0 0 1 -731.2718 173.423)" class="st0" style="font-family:'Montserrat-ExtraLight'; font-size:103.4875px;">B</text>
<text transform="matrix(1 0 0 1 -738.2734 211.8)" class="st0" style="font-family:'Montserrat-ExtraLight'; font-size:29.2176px;">boron</text>
<text transform="matrix(0.9719 0 0 1 -836.2734 40.7969)" class="st0" style="font-family:'Montserrat-ExtraLight'; font-size:37.4533px;">5</text>
<text transform="matrix(1 0 0 1 -641.1476 298.5997)" class="st0" style="font-family:'Montserrat-ExtraLight'; font-size:37.4533px;">10.81</text>
<g>
	<path class="st0" d="M180,153.5c0-9.7-8-15.3-21.9-15.3H133v30.9h25.1C172.1,169.2,180,163.5,180,153.5z"/>
	<path class="st0" d="M241,273.8c-5.2,0-8,4.1-8,11.7s2.8,11.8,8,11.8s8-4.1,8-11.8C249,277.8,246.1,273.8,241,273.8z"/>
	<path class="st0" d="M165.7,197.7c-3.7,0-6.3,2.7-6.3,6.5c0,3.9,2.7,6.5,6.3,6.5c3.7,0,6.3-2.7,6.3-6.5
		C172.1,200.4,169.4,197.7,165.7,197.7z"/>
	<path class="st0" d="M137.7,197.7c-3.7,0-6.3,2.7-6.3,6.5c0,3.9,2.7,6.5,6.3,6.5c3.7,0,6.3-2.7,6.3-6.5S141.4,197.7,137.7,197.7z"
		/>
	<path class="st0" d="M176.4,119.5c0-9-6.7-14.2-18.3-14.2H133v28.6h25.1C169.7,133.9,176.4,128.7,176.4,119.5z"/>
	<path class="st0" d="M119.9,197.7c-3.7,0-6.3,2.7-6.3,6.5s2.6,6.5,6.3,6.5s6.3-2.7,6.3-6.5S123.6,197.7,119.9,197.7z"/>
	<path class="st0" d="M0,0v314h314V0H0z M21.9,40.8c-2.8,0-6.2-1.1-8.7-2.7l0.7-1.3c2.3,1.5,5.4,2.5,7.9,2.5c4.7,0,7.6-2.7,7.6-6.9
		c0-3.6-3-6-7.6-6c-1.9,0-4.8,0.4-6.8,1.1V14.6h15v1.5H16.5v9.6c1.7-0.5,4-0.8,5.6-0.8c5.5,0,9,3,9,7.5C31,37.5,27.4,40.8,21.9,40.8
		z M120.1,211.8c-3,0-5.3-1.5-6.5-4v4h-1.2v-21.7h1.2v10.5c1.1-2.5,3.5-4,6.5-4c4.3,0,7.3,3.2,7.3,7.7
		C127.4,208.6,124.3,211.8,120.1,211.8z M128.6,101.1h29.6c14.2,0,22.6,6.6,22.6,17.9c0,8.9-5.1,15-14,16.7
		c11.2,1.3,17.6,8.2,17.6,18.3c0,12.3-9.6,19.5-26,19.5h-29.8L128.6,101.1L128.6,101.1z M137.7,211.8c-4.3,0-7.5-3.2-7.5-7.7
		s3.2-7.6,7.5-7.6c4.4,0,7.5,3.2,7.5,7.6C145.2,208.7,142.1,211.8,137.7,211.8z M156.5,197.8c-3.4,0-5.4,2.2-5.7,5.8v8.2h-1.2v-15.2
		h1.2v3.8c1-2.5,3-3.8,5.7-3.9V197.8z M165.7,211.8c-4.3,0-7.5-3.2-7.5-7.7s3.2-7.6,7.5-7.6c4.4,0,7.5,3.2,7.5,7.6
		C173.3,208.7,170.1,211.8,165.7,211.8z M191.1,211.8h-1.2v-9.1c0-3.1-1.8-5-5-5c-3.5,0.1-5.7,2.3-5.9,5.8v8.2h-1.2v-15.2h1.2v3.9
		c1-2.5,3.2-3.9,6.2-3.9c3.7,0,5.9,2.3,5.9,6V211.8z M219.1,298.6h-1.5v-24.7h-6.7v-1.5h8.2V298.6z M241,298.6
		c-6.1,0-9.5-4.7-9.5-13.2c0-8.4,3.4-13.1,9.5-13.1c6.2,0,9.6,4.7,9.6,13.1C250.5,294,247.1,298.6,241,298.6z M255.9,298.9
		c-0.7,0-1.3-0.6-1.3-1.4c0-0.7,0.6-1.3,1.3-1.3s1.3,0.6,1.3,1.3C257.2,298.3,256.6,298.9,255.9,298.9z M270.9,298.6
		c-5.8,0-9.4-2.7-9.4-7.3c0-3.5,2.3-5.8,6-6.8c-3-1-4.7-3-4.7-5.9c0-4,3.1-6.3,8.1-6.3s8.1,2.4,8.1,6.4c0,3-1.7,4.9-4.7,5.9
		c3.7,0.9,5.9,3.3,5.9,6.7C280.2,295.9,276.7,298.6,270.9,298.6z M295.2,298.6h-1.5v-24.7H287v-1.5h8.2V298.6z"/>
	<path class="st0" d="M277.5,278.8c0-3.2-2.5-5.1-6.7-5.1s-6.7,1.9-6.7,5.1c0,3.3,2.5,5.2,6.7,5.2S277.5,282,277.5,278.8z"/>
	<path class="st0" d="M270.8,285.4c-4.8,0-7.8,2.2-7.8,5.7c0,3.8,3,6.1,7.9,6.1c4.8,0,7.8-2.2,7.8-6
		C278.7,287.6,275.8,285.4,270.8,285.4z"/>
</g>
</svg>
