<?xml version="1.0" encoding="utf-8"?>
<!-- Generator: Adobe Illustrator 21.0.0, SVG Export Plug-In . SVG Version: 6.00 Build 0)  -->
<svg version="1.1" id="Layer_1" xmlns="http://www.w3.org/2000/svg" xmlns:xlink="http://www.w3.org/1999/xlink" x="0px" y="0px"
	 viewBox="0 0 724 724" style="enable-background:new 0 0 724 724;" xml:space="preserve">
<style type="text/css">
	.st0{fill:#FF5C57;}
</style>
<path class="st0" d="M391.6,465.7c-5.8,0-10.1,4-10.6,9.9h20.8C401.4,469.7,397.6,465.7,391.6,465.7z"/>
<path class="st0" d="M583.8,643.3c0-13.1-4.9-20.1-13.8-20.1s-13.7,7.1-13.7,20.1c0,13.1,4.8,20.2,13.7,20.2
	S583.8,656.4,583.8,643.3z"/>
<path class="st0" d="M268,465.7c-5.8,0-10.1,4-10.6,9.9h20.8C277.8,469.7,274,465.7,268,465.7z"/>
<path class="st0" d="M310.3,465.7c-5.8,0-10.1,4-10.6,9.9h20.8C320.1,469.7,316.3,465.7,310.3,465.7z"/>
<path class="st0" d="M544.1,643.3c0-13.1-4.9-20.1-13.8-20.1c-8.9,0.1-13.7,7.1-13.7,20.1c0,13.1,4.8,20.2,13.7,20.2
	S544.1,656.4,544.1,643.3z"/>
<path class="st0" d="M0,0v724h724V0H0z M699.6,699.6H24.4V510.4h4.3v184.9h666.6V28.7H28.7v184.9h-4.3V24.4h675.2V699.6z M82.6,60.7
	c-6.4,0-13.2,2.9-18.3,7.8l-1.9-3C67.9,60.2,75.6,57,83,57c11.9,0,19.3,5.8,19.3,15.2c0,5.7-4.6,13.1-11.6,20.4L67,117.2h39.9v3.8
	H62.4l0.1-3.9l25.6-26.8c6.3-6.4,10.3-13.1,10.3-17.7C98.4,65.2,92.4,60.7,82.6,60.7z M358.9,318.1v12.2H253.3v85.9h122.4v11.9
	H241.1V225.3h130.8v11.9H253.3v80.9H358.9z M362,465.9c-6.2,0.1-9.9,4.4-9.9,11.2v12.7h-2v-15.4c0-5.3-3.1-8.5-8.3-8.5
	c-6.2,0.1-9.9,4.4-9.9,11.2v12.7h-2v-25.9h2v6.8c1.7-4.4,5.3-6.8,10.5-6.9c5.2,0,8.7,2.8,9.6,7.5c1.6-4.8,5.3-7.4,10.6-7.5
	c6.1,0,9.7,3.9,9.7,10.2v15.8h-2v-15.4C370.3,469.1,367.2,465.9,362,465.9z M310.5,488c3.5,0,6.7-1.3,8.8-3.6l1.2,1.3
	c-2.4,2.6-5.9,4.1-10.1,4.1c-7.3,0-12.6-5.4-12.6-13c0-7.6,5.3-13,12.6-13c7.5,0,12.1,5.6,12,13.6h-22.6
	C300.1,483.7,304.5,488,310.5,488z M289.9,452.9v36.9h-2.1v-36.9H289.9z M268.2,488c3.5,0,6.7-1.3,8.8-3.6l1.2,1.3
	c-2.4,2.6-5.9,4.1-10.1,4.1c-7.3,0-12.6-5.4-12.6-13c0-7.6,5.3-13,12.6-13c7.6,0,12.2,5.6,12,13.6h-22.6
	C257.8,483.7,262.2,488,268.2,488z M391.8,488c3.5,0,6.7-1.3,8.8-3.6l1.2,1.3c-2.4,2.6-5.9,4.1-10.1,4.1c-7.3,0-12.6-5.4-12.6-13
	c0-7.6,5.3-13,12.6-13c7.6,0,12.2,5.6,12,13.6h-22.6C381.4,483.7,385.8,488,391.8,488z M492.3,280.6V291H441v93.7
	c0,21.5,8.4,31.9,24.1,31.6c8.7,0,17.7-3.2,25.5-8.7l4.6,10c-9.6,6.7-20.3,10.7-31.6,10.7c-21.5,0.3-34.2-13.6-34.2-42.1V291h-22
	v-10.4h22v-37.4H441v37.4H492.3z M462.3,653.1v-2.6l18.1-29.6h2.7l-17.9,29.5h20.4V637h2.6v13.4h7.5v2.7H488V666h-2.6v-12.9H462.3z
	 M459.5,470.4c0-4.5,3.9-6.5,8.5-6.5c2.9,0,5.4,0.8,7.4,2l-0.9,1.7c-1.8-1.2-4-1.9-6.5-1.9c-3.6,0-6.5,1.4-6.5,4.5
	c0,7,15.1,3.5,15.1,12.7c0,4.8-4.3,7-9,7c-3.6,0-7.1-1.3-9.5-3.6l0.9-1.6c2.2,2.1,5.4,3.3,8.7,3.3c3.6,0,6.8-1.4,6.9-4.7
	C474.8,476,459.5,479.3,459.5,470.4z M440.5,466.3v-1.8h3.8v-6.4h2v6.4h8.8v1.8h-8.8v16.1c0,3.7,1.4,5.5,4.1,5.4
	c1.5,0,3-0.5,4.4-1.5l0.8,1.7c-1.6,1.1-3.5,1.8-5.4,1.8c-3.7,0-5.9-2.3-5.9-7.2v-16.3H440.5z M423.3,465.9c-6,0.1-9.7,3.9-10.1,9.9
	v14h-2.1v-25.9h2.1v6.6c1.7-4.3,5.4-6.6,10.6-6.7c6.3,0,10.1,3.9,10.1,10.2v15.8h-2.1v-15.4C431.8,469.1,428.7,465.9,423.3,465.9z
	 M502.5,664.3c0-0.1,0-0.2,0-0.2c0-1.2,1-2.2,2.2-2.2s2.2,0.9,2.2,2.1s-0.9,2.3-2.2,2.4C503.5,666.4,502.5,665.5,502.5,664.3z
	 M514,643.3c0-14.6,5.8-22.5,16.3-22.5s16.4,8.1,16.4,22.5c0,14.6-5.8,22.6-16.4,22.6S514,657.9,514,643.3z M553.7,643.3
	c0-14.6,5.8-22.5,16.3-22.5s16.4,8.1,16.4,22.5c0,14.6-5.8,22.6-16.4,22.6S553.7,657.9,553.7,643.3z M625,663.1v2.7h-31.3V663
	l18.1-18.9c4.4-4.4,7.2-9,7.2-12.3c0-5.2-4.3-8.4-11.1-8.4c-4.8,0.2-9.5,2.1-12.9,5.5l-1.4-2.2c3.9-3.8,9.1-5.9,14.5-6
	c8.4,0,13.6,4.1,13.6,10.8c0,4-3.2,9.3-8.2,14.4l-16.7,17.2H625z M636.4,648.1c1.6-6.8,7.1-10.8,14.9-10.8c8.9,0,14.5,5.3,14.5,14.1
	s-5.9,14.5-15.1,14.5c-10.8,0-17.2-7.6-17.2-21.5c0-14.3,6.9-23.8,18-23.8c4.3,0.1,8.5,1.1,12.3,3l-1.2,2.2c-3.3-1.6-7-2.5-10.8-2.5
	C640.9,623.3,635.1,632.8,636.4,648.1z"/>
<path class="st0" d="M650.4,663.4c7.5,0,12.7-4.6,12.7-12c0-7.1-4.8-11.5-12.2-11.5c-8.3,0-13.4,5.7-13.4,11.9
	C637.5,656.6,641.3,663.4,650.4,663.4z"/>
</svg>
