<?xml version="1.0" encoding="utf-8"?>
<!-- Generator: Adobe Illustrator 21.0.0, SVG Export Plug-In . SVG Version: 6.00 Build 0)  -->
<svg version="1.1" id="Layer_1" xmlns="http://www.w3.org/2000/svg" xmlns:xlink="http://www.w3.org/1999/xlink" x="0px" y="0px"
	 viewBox="0 0 203.9 286" style="enable-background:new 0 0 203.9 286;" xml:space="preserve">
<style type="text/css">
	.st0{fill:#00192B;}
	.st1{fill:#FFFFFF;}
	.st2{opacity:0.2;}
	.st3{fill-rule:evenodd;clip-rule:evenodd;}
	.st4{fill-rule:evenodd;clip-rule:evenodd;fill:#FFFFFF;}
</style>
<circle class="st0" cx="-745" cy="-104.9" r="145"/>
<g>
	<path class="st1" d="M-213-277.9l-17-17l-56,56l-55.9-56l-17.1,17l73,73L-213-277.9z"/>
</g>
<g class="st2">
	<polygon class="st3" points="203.9,183.6 102,286 0,183.6 43.2,183.6 43.2,107.1 160.3,107.1 160.3,183.6 	"/>
	<rect x="43.2" y="49.3" class="st3" width="117.1" height="37.1"/>
	<rect x="43.2" class="st3" width="117.1" height="27.6"/>
</g>
<g>
	<polygon class="st4" points="197,180.9 102,276.2 7,180.9 47.2,180.9 47.2,109.6 156.3,109.6 156.3,180.9 	"/>
	<rect x="47.2" y="55.7" class="st4" width="109.1" height="34.6"/>
	<rect x="47.2" y="9.8" class="st4" width="109.1" height="25.8"/>
</g>
</svg>
