<?xml version="1.0" encoding="utf-8"?>
<!-- Generator: Adobe Illustrator 21.0.0, SVG Export Plug-In . SVG Version: 6.00 Build 0)  -->
<svg version="1.1" id="Layer_1" xmlns="http://www.w3.org/2000/svg" xmlns:xlink="http://www.w3.org/1999/xlink" x="0px" y="0px"
	 viewBox="0 0 1234.4 124" style="enable-background:new 0 0 1234.4 124;" xml:space="preserve">
<style type="text/css">
	.st0{fill:#FFFFFF;}
</style>
<g>
	<path class="st0" d="M0,0h73v19.1H22.2V51h41v19.1h-41v32.8h53.6V122H0V0z"/>
	<path class="st0" d="M94.1,0h21.6v91.3c0,9.6,3.3,12,8.9,12c1.7,0,3.3-0.2,3.3-0.2v19.1c0,0-3.3,0.5-6.9,0.5c-12,0-27-3.1-27-28.2
		L94.1,0L94.1,0z"/>
	<path class="st0" d="M182.4,32.3c25.2,0,38.8,18.4,38.8,41.6c0,2.6-0.5,8.4-0.5,8.4h-60.4c1.4,15.3,13.2,23.2,26.3,23.2
		c14.1,0,25.2-9.6,25.2-9.6l8.4,15.6c0,0-13.4,12.5-35.2,12.5c-29,0-47-20.9-47-45.8C137.9,51.2,156.3,32.3,182.4,32.3z M199.2,67.3
		c-0.3-11.8-7.7-18.2-17.3-18.2c-11.2,0-18.9,6.9-20.9,18.2H199.2z"/>
	<path class="st0" d="M239.2,34.3h20.9v10.1c0,3.3-0.3,6-0.3,6h0.3c4.3-8.6,14.8-18.2,28.5-18.2c13.4,0,22,6.2,25.6,18h0.3
		c4.8-9.4,16.1-18,29.9-18c18.2,0,28.7,10.3,28.7,33.3v56.3h-21.8V69.7c0-10-1.9-17.5-12-17.5c-11.2,0-18.5,8.9-21.1,19.9
		c-0.9,3.4-1,7.2-1,11.3v38.5h-21.8V69.7c0-9.4-1.5-17.5-11.8-17.5c-11.3,0-18.7,8.9-21.5,20.1c-0.9,3.3-1,7.2-1,11.2V122h-21.8
		V34.3H239.2z"/>
	<path class="st0" d="M434.2,32.3c25.2,0,38.8,18.4,38.8,41.6c0,2.6-0.5,8.4-0.5,8.4h-60.4c1.4,15.3,13.2,23.2,26.3,23.2
		c14.1,0,25.2-9.6,25.2-9.6l8.4,15.6c0,0-13.4,12.5-35.2,12.5c-29,0-47-20.9-47-45.8C389.8,51.2,408.1,32.3,434.2,32.3z M451.1,67.3
		c-0.3-11.8-7.7-18.2-17.3-18.2c-11.2,0-18.9,6.9-20.9,18.2H451.1z"/>
	<path class="st0" d="M491.1,34.3H512v10.1c0,3.3-0.3,6-0.3,6h0.3c3.8-7.4,13.4-18.2,31.1-18.2c19.4,0,30.4,10.1,30.4,33.3v56.3
		h-21.6V70.1c0-10.6-2.7-17.9-13.9-17.9c-11.7,0-20.3,7.4-23.5,17.9c-1.2,3.6-1.5,7.6-1.5,11.7V122h-21.8V34.3H491.1z"/>
	<path class="st0" d="M600.1,53.1h-11.3V35.7h11.8V10.5h21.3v25.2h19.9V53h-19.9v34c0,14.4,11.3,16.5,17.3,16.5
		c2.4,0,3.9-0.3,3.9-0.3v19.1c0,0-2.6,0.5-6.7,0.5c-12.2,0-36.4-3.6-36.4-33V53.1H600.1z"/>
	<path class="st0" d="M663.6,95.8c0,0,9.6,9.6,23.9,9.6c6.2,0,11.5-2.7,11.5-7.9c0-13-42.6-11.3-42.6-39.5
		c0-16.3,14.6-25.8,33.5-25.8c19.7,0,29.4,10,29.4,10l-8.1,16.1c0,0-8.1-7.6-21.5-7.6c-5.7,0-11.2,2.4-11.2,7.9
		c0,12.4,42.6,10.8,42.6,39c0,14.6-12.7,26.3-33.5,26.3c-21.8,0-34-12.9-34-12.9L663.6,95.8z"/>
	<path class="st0" d="M809.1,19.1h-40V0h102.2v19.1h-40V122h-22.2V19.1z"/>
	<path class="st0" d="M917.4,67h2.9v-1.2c0-11.5-7.2-15.5-16.8-15.5c-12.5,0-24,8.4-24,8.4l-8.2-15.6c0,0,13.6-10.8,34.3-10.8
		c23,0,36.4,12.7,36.4,34.9V122h-20.1v-7.2c0-3.4,0.3-6.2,0.3-6.2h-0.3c0.2,0-6.7,15.5-26.6,15.5c-15.6,0-29.7-9.8-29.7-27.3
		C865.6,68.9,903.2,67,917.4,67z M900.8,107c11.5,0,19.7-12.4,19.7-23v-2.1h-3.8c-11.2,0-29.2,1.5-29.2,13.7
		C887.5,101.5,891.8,107,900.8,107z"/>
	<path class="st0" d="M964.6,0h21.8v37.6c0,4.3-0.3,7.4-0.3,7.4h0.3c0,0,7.7-12.7,26.3-12.7c23.7,0,38.8,18.7,38.8,45.8
		c0,27.8-17,45.8-40.2,45.8c-18.2,0-26.1-13-26.1-13h-0.3c0,0,0.3,2.6,0.3,6v5h-20.6L964.6,0L964.6,0z M1007.6,105.6
		c12,0,22-9.8,22-27.1c0-16.7-8.9-27.5-21.8-27.5c-11.3,0-22,8.2-22,27.6C985.8,92.2,993,105.6,1007.6,105.6z"/>
	<path class="st0" d="M1068.3,0h21.6v91.3c0,9.6,3.3,12,8.9,12c1.7,0,3.3-0.2,3.3-0.2v19.1c0,0-3.3,0.5-6.9,0.5
		c-12,0-27-3.1-27-28.2L1068.3,0L1068.3,0z"/>
	<path class="st0" d="M1156.6,32.3c25.2,0,38.8,18.4,38.8,41.6c0,2.6-0.5,8.4-0.5,8.4h-60.4c1.4,15.3,13.2,23.2,26.3,23.2
		c14.1,0,25.2-9.6,25.2-9.6l8.4,15.6c0,0-13.4,12.5-35.2,12.5c-29,0-47-20.9-47-45.8C1112.1,51.2,1130.5,32.3,1156.6,32.3z
		 M1173.4,67.3c-0.3-11.8-7.7-18.2-17.3-18.2c-11.2,0-18.9,6.9-20.9,18.2H1173.4z"/>
	<path class="st0" d="M1223.5,100.1L1223.5,100.1c6,0,10.9,4.9,10.9,10.9l0,0c0,6-4.9,10.9-10.9,10.9l0,0c-6,0-10.9-4.9-10.9-10.9
		l0,0C1212.6,105,1217.5,100.1,1223.5,100.1z"/>
</g>
</svg>
