<?xml version="1.0" encoding="utf-8"?>
<!-- Generator: Adobe Illustrator 21.0.0, SVG Export Plug-In . SVG Version: 6.00 Build 0)  -->
<svg version="1.1" id="Periodic_Table" xmlns="http://www.w3.org/2000/svg" xmlns:xlink="http://www.w3.org/1999/xlink" x="0px"
	 y="0px" viewBox="0 0 336 336" style="enable-background:new 0 0 336 336;" xml:space="preserve">
<style type="text/css">
	.st0{fill:#FFFFFF;}
	.st1{opacity:0.1;}
	.st2{fill:#00192B;}
</style>
<title>Artboard 3</title>
<g>
	<path class="st0" d="M-1245.2,343.9l-8.3,13.7h9.5v-6.3h1.2v6.3h3.5v1.3h-3.6v6h-1.2v-6h-10.8v-1.2l8.4-13.8H-1245.2z"/>
	<path class="st0" d="M-1234.2,364c0,0.6-0.4,1.1-1,1.1s-1-0.4-1-1V364c0-0.6,0.4-1,1-1S-1234.2,363.4-1234.2,364z"/>
	<path class="st0" d="M-1215.7,354.3c0,6.8-2.7,10.5-7.6,10.5s-7.6-3.7-7.6-10.5s2.7-10.5,7.6-10.5
		C-1218.4,343.9-1215.7,347.6-1215.7,354.3z M-1229.7,354.3c0,6.1,2.2,9.4,6.4,9.4c4.1,0,6.4-3.3,6.4-9.4s-2.3-9.3-6.4-9.3
		C-1227.4,345-1229.7,348.3-1229.7,354.3z"/>
	<path class="st0" d="M-1197.2,354.3c0,6.8-2.7,10.5-7.6,10.5s-7.6-3.7-7.6-10.5s2.7-10.5,7.6-10.5
		C-1199.9,343.9-1197.2,347.6-1197.2,354.3z M-1211.2,354.3c0,6.1,2.2,9.4,6.4,9.4c4.1,0,6.4-3.3,6.4-9.4s-2.3-9.3-6.4-9.3
		C-1208.9,345-1211.2,348.3-1211.2,354.3z"/>
	<path class="st0" d="M-1182,349c0-2.4-2-3.9-5.2-3.9c-2.3,0.1-4.4,1-6,2.6l-0.6-1c1.8-1.8,4.2-2.8,6.8-2.8c3.9,0,6.3,1.9,6.3,5
		c0,1.9-1.5,4.3-3.8,6.7l-7.8,8h13.1v1.3h-14.6v-1.4l8.4-8.8C-1183.3,352.7-1182,350.5-1182,349z"/>
	<path class="st0" d="M-1166.8,345c-5.1,0-7.8,4.4-7.1,11.5c0.8-3.1,3.3-5,6.9-5c4.2,0,6.7,2.5,6.7,6.5s-2.8,6.7-7,6.7
		c-5,0-8-3.5-8-10c0-6.7,3.2-11.1,8.4-11.1c2,0,4,0.5,5.7,1.4l-0.5,1C-1163.3,345.4-1165,345-1166.8,345z M-1173.4,358.3
		c0,2.2,1.8,5.4,6,5.4c3.5,0,5.9-2.1,5.9-5.6c0-3.3-2.2-5.4-5.7-5.4C-1171,352.7-1173.4,355.4-1173.4,358.3L-1173.4,358.3z"/>
	<path class="st0" d="M-1352.6,173.3v33h47v-33h4v70h-4v-33h-47v33h-5v-70H-1352.6z"/>
	<path class="st0" d="M-1235.6,218.3h-45.3c0.6,12.7,9.4,21.2,21.4,21.2c7.1,0,13.4-2.6,17.5-7.2l2.4,2.7
		c-4.8,5.2-11.9,8.3-20.1,8.3c-14.6,0-25.3-10.8-25.3-26s10.7-26.1,25.3-26.1C-1244.5,191.1-1235.3,202.3-1235.6,218.3z
		 M-1239.3,214.3c-0.8-11.8-8.5-19.7-20.3-19.7c-11.7,0-20.1,8-21.1,19.7H-1239.3z"/>
	<path class="st0" d="M-1333.4,265.9v9.4h-1.3v-9.2c0-3.2-1.9-5-5-5c-3.8,0.1-6.1,2.6-6.1,6.7v7.6h-1.3v-22h1.3V264
		c1-2.6,3.2-4,6.4-4.1C-1335.6,259.9-1333.4,262.1-1333.4,265.9z"/>
	<path class="st0" d="M-1314.7,268h-13.5c0,3.4,2.7,6.3,6.1,6.3c0.1,0,0.2,0,0.2,0c2,0.1,3.9-0.7,5.2-2.1l0.7,0.8
		c-1.6,1.6-3.7,2.5-6,2.5c-4.3-0.2-7.6-3.8-7.5-8c0.1-4.1,3.4-7.3,7.5-7.5C-1317.3,259.9-1314.6,263.2-1314.7,268z M-1315.8,266.9
		c-0.2-3.5-2.5-5.9-6-5.9c-3.4-0.1-6.2,2.5-6.3,5.9H-1315.8z"/>
	<path class="st0" d="M-1308.9,253.3v22h-1.3v-22H-1308.9z"/>
	<path class="st0" d="M-1300.9,255.4c0,0.6-0.5,1-1.1,0.9c-0.6,0-1-0.5-0.9-1.1c0-0.5,0.5-0.9,1-0.9
		C-1301.3,254.4-1300.9,254.9-1300.9,255.4z M-1301.3,259.9v15.4h-1.2v-15.4H-1301.3z"/>
	<path class="st0" d="M-1282.3,259.9v15.4h-1.2v-4.1c-0.9,2.6-3.4,4.3-6.2,4.1c-3.7,0-5.9-2.3-5.9-6.1v-9.4h1.2v9.2c0,3.2,1.8,5,5,5
		c3.7-0.1,5.9-2.6,5.9-6.7v-7.6L-1282.3,259.9z"/>
	<path class="st0" d="M-1250.8,265.9v9.4h-1.2v-9.2c0-3.2-1.8-5-5-5c-3.7,0.1-5.9,2.6-5.9,6.7v7.6h-1.2v-9.2c0-3.2-1.9-5-5-5
		c-3.7,0.1-5.9,2.6-5.9,6.7v7.6h-1.2V260h1.2v4.1c1-2.6,3.2-4,6.2-4.1s5.2,1.7,5.7,4.5c0.8-2.8,3.4-4.6,6.3-4.5
		C-1253,259.9-1250.8,262.1-1250.8,265.9z"/>
	<text transform="matrix(1 0 0 1 -1443.4093 111.4073)" class="st0" style="font-family:'Montserrat-Regular'; font-size:42.42px;">2</text>
	<polygon class="st0" points="-1458.6,66.5 -1458.6,154.5 -1456.6,154.5 -1456.6,68.5 -1146.6,68.5 -1146.6,378.5 -1456.6,378.5 
		-1456.6,292.5 -1458.6,292.5 -1458.6,380.5 -1144.6,380.5 -1144.6,66.5 	"/>
</g>
<g>
	<rect class="st1" width="336" height="336"/>
	<rect x="18.1" y="16.8" class="st2" width="299.9" height="300.2"/>
	<path class="st0" d="M209.9,139.1c-11.7,0-20.1,8-21.1,19.7h41.5C229.4,147.1,221.7,139.1,209.9,139.1z"/>
	<path class="st0" d="M264.7,289.5c-4.1,0-6.4,3.3-6.4,9.3c0,6.1,2.2,9.4,6.4,9.4c4.1,0,6.4-3.3,6.4-9.4
		C271.1,292.7,268.9,289.5,264.7,289.5z"/>
	<path class="st0" d="M246.3,289.5c-4.1,0-6.4,3.3-6.4,9.3c0,6.1,2.2,9.4,6.4,9.4c4.1,0,6.4-3.3,6.4-9.4
		C252.7,292.7,250.4,289.5,246.3,289.5z"/>
	<path class="st0" d="M302.4,297.2c-3.9,0-6.2,2.7-6.2,5.6l0,0c0,2.2,1.8,5.4,6,5.4c3.5,0,5.9-2.1,5.9-5.6
		C308.1,299.3,305.8,297.2,302.4,297.2z"/>
	<path class="st0" d="M147.7,205.5c-3.4-0.1-6.2,2.5-6.3,5.9h12.3C153.5,207.9,151.2,205.5,147.7,205.5z"/>
	<path class="st0" d="M11,11v314h314V11H11z M50.1,55.9H28.3v-3.7l11.3-11.7c2.2-2.2,3.8-4.6,3.8-6.3c0-2.4-2-3.8-5.2-3.8
		c-2.7,0-5.8,1.4-8.4,3.7l-2-3.9C31.1,27.6,35,26,38.9,26c5.8,0,9.8,2.9,9.8,7.5c0,3-2.3,6.3-5.6,9.7L35,51.4h15.2v4.5H50.1z
		 M136.1,219.8h-1.3v-9.2c0-3.2-1.9-5-5-5c-3.8,0.1-6,2.6-6,6.7v7.6h-1.3v-22h1.3v10.6c1-2.6,3.2-4,6.4-4.1c3.7,0,5.9,2.2,5.9,6
		V219.8z M147.5,218.8c0.1,0,0.2,0,0.2,0c2,0.1,3.9-0.7,5.2-2.1l0.7,0.8c-1.6,1.6-3.7,2.5-6,2.5c-4.3-0.2-7.6-3.8-7.5-8
		c0.1-4.1,3.4-7.3,7.5-7.5c4.5,0,7.3,3.3,7.2,8.1h-13.5C141.3,215.9,144.1,218.7,147.5,218.8z M160.7,219.8h-1.3v-22h1.3V219.8z
		 M117,154.8v33h-5v-70h5v33h47v-33h4v70h-4v-33H117z M168.2,219.8H167v-15.4h1.2V219.8z M167.6,200.9c-0.6,0-1-0.5-0.9-1.1
		c0-0.5,0.5-0.9,1-0.9c0.6,0,1,0.5,1,1.1C168.6,200.5,168.1,200.9,167.6,200.9z M187.2,219.8H186v-4.1c-0.9,2.6-3.4,4.3-6.2,4.2
		c-3.7,0-5.9-2.3-5.9-6v-9.4h1.2v9.2c0,3.2,1.8,5,5,5c3.7-0.1,5.9-2.6,5.9-6.7v-7.6h1.2V219.8z M184.5,161.8
		c0-15.2,10.7-26.1,25.3-26.1c15.3,0,24.4,11.1,24.2,27.2h-45.4c0.6,12.7,9.4,21.2,21.4,21.2c7.1,0,13.4-2.6,17.5-7.2l2.4,2.7
		c-4.8,5.2-11.9,8.3-20.1,8.3C195.2,187.8,184.5,177,184.5,161.8z M206.7,212.3v7.6h-1.2v-9.2c0-3.2-1.9-5-5-5
		c-3.7,0.1-5.9,2.6-5.9,6.7v7.6h-1.2v-15.5h1.2v4.1c1-2.6,3.2-4,6.2-4.1c3.1-0.1,5.2,1.7,5.7,4.5c0.8-2.8,3.4-4.6,6.3-4.5
		c3.7,0,5.9,2.3,5.9,6v9.4h-1.2v-9.2c0-3.2-1.8-5-5-5C208.8,205.7,206.7,208.3,206.7,212.3z M230.2,303.4h-3.6v6h-1.2v-6h-10.8v-1.2
		l8.4-13.8h1.3l-8.3,13.7h9.5v-6.3h1.2v6.3h3.5L230.2,303.4L230.2,303.4z M234.4,309.6c-0.6,0-1-0.4-1-1v-0.1c0-0.6,0.4-1,1-1
		s1,0.4,1,1C235.4,309,235,309.5,234.4,309.6z M246.3,309.4c-4.9,0-7.6-3.7-7.6-10.5s2.7-10.5,7.6-10.5c4.9,0,7.6,3.7,7.6,10.5
		C253.9,305.6,251.2,309.4,246.3,309.4z M264.7,309.4c-4.9,0-7.6-3.7-7.6-10.5s2.7-10.5,7.6-10.5c4.9,0,7.6,3.7,7.6,10.5
		C272.4,305.6,269.7,309.4,264.7,309.4z M290.3,309.3h-14.6V308l8.4-8.8c2.1-2,3.4-4.2,3.4-5.8c0-2.4-2-3.9-5.2-3.9
		c-2.3,0.1-4.4,1-6,2.6l-0.6-1c1.8-1.8,4.2-2.8,6.8-2.8c3.9,0,6.3,1.9,6.3,5c0,1.9-1.5,4.3-3.8,6.7l-7.8,8h13.1L290.3,309.3
		L290.3,309.3z M302.3,309.4c-5,0-8-3.5-8-10c0-6.7,3.2-11.1,8.4-11.1c2,0,4,0.5,5.7,1.4l-0.5,1c-1.6-0.8-3.3-1.2-5.1-1.2
		c-5.1,0-7.8,4.4-7.1,11.5c0.8-3.1,3.3-5,6.9-5c4.2,0,6.7,2.5,6.7,6.5C309.3,306.7,306.5,309.4,302.3,309.4z"/>
</g>
<image style="overflow:visible;" width="1920" height="1080" xlink:href="CABED273.jpg"  transform="matrix(1 0 0 1 623.9772 -1246.6)">
</image>
</svg>
