<?xml version="1.0" encoding="utf-8"?>
<!-- Generator: Adobe Illustrator 21.0.0, SVG Export Plug-In . SVG Version: 6.00 Build 0)  -->
<svg version="1.1" id="Periodic_Table" xmlns="http://www.w3.org/2000/svg" xmlns:xlink="http://www.w3.org/1999/xlink" x="0px"
	 y="0px" viewBox="0 0 314 314" style="enable-background:new 0 0 314 314;" xml:space="preserve">
<style type="text/css">
	.st0{fill:#FFFFFF;}
	.st1{enable-background:new    ;}
</style>
<title>Artboard 3</title>
<g>
	<g>
		<path class="st0" d="M213.4,277.4l-8.3,13.7h9.5v-6.3h1.2v6.3h3.5v1.3h-3.6v6h-1.2v-6h-10.8v-1.2l8.4-13.8H213.4z"/>
	</g>
	<g>
		<path class="st0" d="M224.4,297.5c0,0.6-0.4,1.1-1,1.1s-1-0.4-1-1v-0.1c0-0.6,0.4-1,1-1S224.4,296.9,224.4,297.5z"/>
	</g>
	<g>
		<path class="st0" d="M242.9,287.8c0,6.8-2.7,10.5-7.6,10.5c-4.9,0-7.6-3.7-7.6-10.5s2.7-10.5,7.6-10.5
			C240.2,277.4,242.9,281.1,242.9,287.8z M228.9,287.8c0,6.1,2.2,9.4,6.4,9.4c4.1,0,6.4-3.3,6.4-9.4s-2.3-9.3-6.4-9.3
			S228.9,281.8,228.9,287.8z"/>
	</g>
	<g>
		<path class="st0" d="M261.4,287.8c0,6.8-2.7,10.5-7.6,10.5c-4.9,0-7.6-3.7-7.6-10.5s2.7-10.5,7.6-10.5
			C258.7,277.4,261.4,281.1,261.4,287.8z M247.4,287.8c0,6.1,2.2,9.4,6.4,9.4c4.1,0,6.4-3.3,6.4-9.4s-2.3-9.3-6.4-9.3
			S247.4,281.8,247.4,287.8z"/>
	</g>
	<g>
		<path class="st0" d="M276.6,282.5c0-2.4-2-3.9-5.2-3.9c-2.3,0.1-4.4,1-6,2.6l-0.6-1c1.8-1.8,4.2-2.8,6.8-2.8c3.9,0,6.3,1.9,6.3,5
			c0,1.9-1.5,4.3-3.8,6.7l-7.8,8h13.1v1.3h-14.6V297l8.4-8.8C275.3,286.2,276.6,284,276.6,282.5z"/>
	</g>
	<g>
		<path class="st0" d="M291.8,278.5c-5.1,0-7.8,4.4-7.1,11.5c0.8-3.1,3.3-5,6.9-5c4.2,0,6.7,2.5,6.7,6.5s-2.8,6.7-7,6.7
			c-5,0-8-3.5-8-10c0-6.7,3.2-11.1,8.4-11.1c2,0,4,0.5,5.7,1.4l-0.5,1C295.3,278.9,293.6,278.5,291.8,278.5z M285.2,291.8
			c0,2.2,1.8,5.4,6,5.4c3.5,0,5.9-2.1,5.9-5.6c0-3.3-2.2-5.4-5.7-5.4C287.6,286.2,285.2,288.9,285.2,291.8L285.2,291.8z"/>
	</g>
	<g>
		<path class="st0" d="M106,106.8v33h47v-33h4v70h-4v-33h-47v33h-5v-70H106z"/>
	</g>
	<g>
		<path class="st0" d="M223,151.8h-45.3c0.6,12.7,9.4,21.2,21.4,21.2c7.1,0,13.4-2.6,17.5-7.2l2.4,2.7c-4.8,5.2-11.9,8.3-20.1,8.3
			c-14.6,0-25.3-10.8-25.3-26s10.7-26.1,25.3-26.1C214.1,124.6,223.3,135.8,223,151.8z M219.3,147.8c-0.8-11.8-8.5-19.7-20.3-19.7
			c-11.7,0-20.1,8-21.1,19.7H219.3z"/>
	</g>
	<g>
		<path class="st0" d="M125.2,199.4v9.4h-1.3v-9.2c0-3.2-1.9-5-5-5c-3.8,0.1-6.1,2.6-6.1,6.7v7.6h-1.3v-22h1.3v10.6
			c1-2.6,3.2-4,6.4-4.1C123,193.4,125.2,195.6,125.2,199.4z"/>
	</g>
	<g>
		<path class="st0" d="M143.9,201.5h-13.5c0,3.4,2.7,6.3,6.1,6.3c0.1,0,0.2,0,0.2,0c2,0.1,3.9-0.7,5.2-2.1l0.7,0.8
			c-1.6,1.6-3.7,2.5-6,2.5c-4.3-0.2-7.6-3.8-7.5-8c0.1-4.1,3.4-7.3,7.5-7.5C141.3,193.4,144,196.7,143.9,201.5z M142.8,200.4
			c-0.2-3.5-2.5-5.9-6-5.9c-3.4-0.1-6.2,2.5-6.3,5.9H142.8z"/>
	</g>
	<g>
		<path class="st0" d="M149.7,186.8v22h-1.3v-22H149.7z"/>
	</g>
	<g>
		<path class="st0" d="M157.7,188.9c0,0.6-0.5,1-1.1,0.9c-0.6,0-1-0.5-0.9-1.1c0-0.5,0.5-0.9,1-0.9
			C157.3,187.9,157.7,188.4,157.7,188.9z M157.3,193.4v15.4h-1.2v-15.4H157.3z"/>
	</g>
	<g>
		<path class="st0" d="M176.3,193.4v15.4h-1.2v-4.1c-0.9,2.6-3.4,4.3-6.2,4.1c-3.7,0-5.9-2.3-5.9-6.1v-9.4h1.2v9.2c0,3.2,1.8,5,5,5
			c3.7-0.1,5.9-2.6,5.9-6.7v-7.6L176.3,193.4z"/>
	</g>
	<g>
		<path class="st0" d="M207.8,199.4v9.4h-1.2v-9.2c0-3.2-1.8-5-5-5c-3.7,0.1-5.9,2.6-5.9,6.7v7.6h-1.2v-9.2c0-3.2-1.9-5-5-5
			c-3.7,0.1-5.9,2.6-5.9,6.7v7.6h-1.2v-15.5h1.2v4.1c1-2.6,3.2-4,6.2-4.1s5.2,1.7,5.7,4.5c0.8-2.8,3.4-4.6,6.3-4.5
			C205.6,193.4,207.8,195.6,207.8,199.4z"/>
	</g>
	<g class="st1">
		<path class="st0" d="M32.5,23.2c0-2.4-2-3.8-5.2-3.8c-2.7,0-5.8,1.4-8.4,3.7l-2-3.9C20.2,16.6,24,15,27.9,15
			c5.8,0,9.8,2.9,9.8,7.5c0,3-2.3,6.3-5.6,9.7L24,40.4h15.2v4.5H17.4v-3.7l11.3-11.7C31,27.3,32.5,24.9,32.5,23.2z"/>
	</g>
	<g>
		<polygon class="st0" points="0,0 0,88 2,88 2,2 312,2 312,312 2,312 2,226 0,226 0,314 314,314 314,0 		"/>
	</g>
</g>
</svg>
