<?xml version="1.0" encoding="utf-8"?>
<!-- Generator: Adobe Illustrator 21.0.0, SVG Export Plug-In . SVG Version: 6.00 Build 0)  -->
<svg version="1.1" id="Periodic_Table" xmlns="http://www.w3.org/2000/svg" xmlns:xlink="http://www.w3.org/1999/xlink" x="0px"
	 y="0px" viewBox="0 0 326 326" style="enable-background:new 0 0 326 326;" xml:space="preserve">
<style type="text/css">
	.st0{opacity:0.1;enable-background:new    ;}
	.st1{fill:#FFFFFF;}
</style>
<rect class="st0" width="326" height="326"/>
<g>
	<path class="st1" d="M204.9,134.1c-11.7,0-20.1,8-21.1,19.7h41.5C224.4,142.1,216.7,134.1,204.9,134.1z"/>
	<path class="st1" d="M259.7,284.5c-4.1,0-6.4,3.3-6.4,9.3c0,6.1,2.2,9.4,6.4,9.4c4.1,0,6.4-3.3,6.4-9.4
		C266.1,287.7,263.9,284.5,259.7,284.5z"/>
	<path class="st1" d="M241.3,284.5c-4.1,0-6.4,3.3-6.4,9.3c0,6.1,2.2,9.4,6.4,9.4c4.1,0,6.4-3.3,6.4-9.4
		C247.7,287.7,245.4,284.5,241.3,284.5z"/>
	<path class="st1" d="M297.4,292.2c-3.9,0-6.2,2.7-6.2,5.6l0,0c0,2.2,1.8,5.4,6,5.4c3.5,0,5.9-2.1,5.9-5.6
		C303.1,294.3,300.8,292.2,297.4,292.2z"/>
	<path class="st1" d="M142.7,200.5c-3.4-0.1-6.2,2.5-6.3,5.9h12.3C148.5,202.9,146.2,200.5,142.7,200.5z"/>
	<path class="st1" d="M6,6v314h314V6H6z M45.1,50.9H23.3v-3.7l11.3-11.7c2.2-2.2,3.8-4.6,3.8-6.3c0-2.4-2-3.8-5.2-3.8
		c-2.7,0-5.8,1.4-8.4,3.7l-2-3.9C26.1,22.6,30,21,33.9,21c5.8,0,9.8,2.9,9.8,7.5c0,3-2.3,6.3-5.6,9.7L30,46.4h15.2v4.5H45.1z
		 M131.1,214.8h-1.3v-9.2c0-3.2-1.9-5-5-5c-3.8,0.1-6,2.6-6,6.7v7.6h-1.3v-22h1.3v10.6c1-2.6,3.2-4,6.4-4.1c3.7,0,5.9,2.2,5.9,6
		V214.8z M142.5,213.8c0.1,0,0.2,0,0.2,0c2,0.1,3.9-0.7,5.2-2.1l0.7,0.8c-1.6,1.6-3.7,2.5-6,2.5c-4.3-0.2-7.6-3.8-7.5-8
		c0.1-4.1,3.4-7.3,7.5-7.5c4.5,0,7.3,3.3,7.2,8.1h-13.5C136.3,210.9,139.1,213.7,142.5,213.8z M155.7,214.8h-1.3v-22h1.3V214.8z
		 M112,149.8v33h-5v-70h5v33h47v-33h4v70h-4v-33H112z M163.2,214.8H162v-15.4h1.2V214.8z M162.6,195.9c-0.6,0-1-0.5-0.9-1.1
		c0-0.5,0.5-0.9,1-0.9c0.6,0,1,0.5,1,1.1C163.6,195.5,163.1,195.9,162.6,195.9z M182.2,214.8H181v-4.1c-0.9,2.6-3.4,4.3-6.2,4.2
		c-3.7,0-5.9-2.3-5.9-6v-9.4h1.2v9.2c0,3.2,1.8,5,5,5c3.7-0.1,5.9-2.6,5.9-6.7v-7.6h1.2V214.8z M179.5,156.8
		c0-15.2,10.7-26.1,25.3-26.1c15.3,0,24.4,11.1,24.2,27.2h-45.4c0.6,12.7,9.4,21.2,21.4,21.2c7.1,0,13.4-2.6,17.5-7.2l2.4,2.7
		c-4.8,5.2-11.9,8.3-20.1,8.3C190.2,182.8,179.5,172,179.5,156.8z M201.7,207.3v7.6h-1.2v-9.2c0-3.2-1.9-5-5-5
		c-3.7,0.1-5.9,2.6-5.9,6.7v7.6h-1.2v-15.5h1.2v4.1c1-2.6,3.2-4,6.2-4.1c3.1-0.1,5.2,1.7,5.7,4.5c0.8-2.8,3.4-4.6,6.3-4.5
		c3.7,0,5.9,2.3,5.9,6v9.4h-1.2v-9.2c0-3.2-1.8-5-5-5C203.8,200.7,201.7,203.3,201.7,207.3z M225.2,298.4h-3.6v6h-1.2v-6h-10.8v-1.2
		l8.4-13.8h1.3l-8.3,13.7h9.5v-6.3h1.2v6.3h3.5L225.2,298.4L225.2,298.4z M229.4,304.6c-0.6,0-1-0.4-1-1v-0.1c0-0.6,0.4-1,1-1
		s1,0.4,1,1C230.4,304,230,304.5,229.4,304.6z M241.3,304.4c-4.9,0-7.6-3.7-7.6-10.5s2.7-10.5,7.6-10.5c4.9,0,7.6,3.7,7.6,10.5
		C248.9,300.6,246.2,304.4,241.3,304.4z M259.7,304.4c-4.9,0-7.6-3.7-7.6-10.5s2.7-10.5,7.6-10.5c4.9,0,7.6,3.7,7.6,10.5
		C267.4,300.6,264.7,304.4,259.7,304.4z M285.3,304.3h-14.6V303l8.4-8.8c2.1-2,3.4-4.2,3.4-5.8c0-2.4-2-3.9-5.2-3.9
		c-2.3,0.1-4.4,1-6,2.6l-0.6-1c1.8-1.8,4.2-2.8,6.8-2.8c3.9,0,6.3,1.9,6.3,5c0,1.9-1.5,4.3-3.8,6.7l-7.8,8h13.1L285.3,304.3
		L285.3,304.3z M297.3,304.4c-5,0-8-3.5-8-10c0-6.7,3.2-11.1,8.4-11.1c2,0,4,0.5,5.7,1.4l-0.5,1c-1.6-0.8-3.3-1.2-5.1-1.2
		c-5.1,0-7.8,4.4-7.1,11.5c0.8-3.1,3.3-5,6.9-5c4.2,0,6.7,2.5,6.7,6.5C304.3,301.7,301.5,304.4,297.3,304.4z"/>
</g>
</svg>
