<?xml version="1.0" encoding="utf-8"?>
<!-- Generator: Adobe Illustrator 21.0.0, SVG Export Plug-In . SVG Version: 6.00 Build 0)  -->
<svg version="1.1" id="Layer_1" xmlns="http://www.w3.org/2000/svg" xmlns:xlink="http://www.w3.org/1999/xlink" x="0px" y="0px"
	 viewBox="0 0 736 777" style="enable-background:new 0 0 736 777;" xml:space="preserve">
<style type="text/css">
	.st0{fill:#FFFFFF;}
</style>
<g>
	<g>
		<path class="st0" d="M368,46c49,0,96.5,9.6,141.3,28.5c43.2,18.3,82,44.5,115.4,77.8s59.5,72.2,77.8,115.4
			C721.4,312.5,731,360,731,409s-9.6,96.5-28.5,141.3c-18.3,43.2-44.5,82-77.8,115.4c-33.3,33.3-72.2,59.5-115.4,77.8
			C464.5,762.4,417,772,368,772s-96.5-9.6-141.3-28.5c-43.2-18.3-82-44.5-115.4-77.8C78,632.3,51.8,593.5,33.5,550.3
			C14.6,505.5,5,458,5,409s9.6-96.5,28.5-141.3c18.3-43.2,44.5-82,77.8-115.4s72.2-59.5,115.4-77.8C271.5,55.6,319,46,368,46
			 M368,41C164.8,41,0,205.8,0,409s164.8,368,368,368s368-164.8,368-368S571.2,41,368,41L368,41z"/>
	</g>
	<g>
		<circle class="st0" cx="368" cy="45" r="45"/>
	</g>
</g>
</svg>
