<?xml version="1.0" encoding="utf-8"?>
<!-- Generator: Adobe Illustrator 21.0.0, SVG Export Plug-In . SVG Version: 6.00 Build 0)  -->
<svg version="1.1" id="Periodic_Table" xmlns="http://www.w3.org/2000/svg" xmlns:xlink="http://www.w3.org/1999/xlink" x="0px"
	 y="0px" viewBox="0 0 314 314" style="enable-background:new 0 0 314 314;" xml:space="preserve">
<style type="text/css">
	.st0{fill:#FFFFFF;}
	.st1{opacity:0.1;enable-background:new    ;}
</style>
<title>Artboard 3</title>
<g>
	<path class="st0" d="M-607.3,277.4l-8.3,13.7h9.5v-6.3h1.2v6.3h3.5v1.3h-3.6v6h-1.2v-6H-617v-1.2l8.4-13.8H-607.3z"/>
	<path class="st0" d="M-596.3,297.5c0,0.6-0.4,1.1-1,1.1s-1-0.4-1-1v-0.1c0-0.6,0.4-1,1-1S-596.3,296.9-596.3,297.5z"/>
	<path class="st0" d="M-577.8,287.8c0,6.8-2.7,10.5-7.6,10.5c-4.9,0-7.6-3.7-7.6-10.5s2.7-10.5,7.6-10.5
		C-580.5,277.4-577.8,281.1-577.8,287.8z M-591.8,287.8c0,6.1,2.2,9.4,6.4,9.4c4.1,0,6.4-3.3,6.4-9.4s-2.3-9.3-6.4-9.3
		S-591.8,281.8-591.8,287.8z"/>
	<path class="st0" d="M-559.3,287.8c0,6.8-2.7,10.5-7.6,10.5c-4.9,0-7.6-3.7-7.6-10.5s2.7-10.5,7.6-10.5
		C-562,277.4-559.3,281.1-559.3,287.8z M-573.3,287.8c0,6.1,2.2,9.4,6.4,9.4c4.1,0,6.4-3.3,6.4-9.4s-2.3-9.3-6.4-9.3
		S-573.3,281.8-573.3,287.8z"/>
	<path class="st0" d="M-544.1,282.5c0-2.4-2-3.9-5.2-3.9c-2.3,0.1-4.4,1-6,2.6l-0.6-1c1.8-1.8,4.2-2.8,6.8-2.8c3.9,0,6.3,1.9,6.3,5
		c0,1.9-1.5,4.3-3.8,6.7l-7.8,8h13.1v1.3h-14.6V297l8.4-8.8C-545.4,286.2-544.1,284-544.1,282.5z"/>
	<path class="st0" d="M-528.9,278.5c-5.1,0-7.8,4.4-7.1,11.5c0.8-3.1,3.3-5,6.9-5c4.2,0,6.7,2.5,6.7,6.5s-2.8,6.7-7,6.7
		c-5,0-8-3.5-8-10c0-6.7,3.2-11.1,8.4-11.1c2,0,4,0.5,5.7,1.4l-0.5,1C-525.4,278.9-527.1,278.5-528.9,278.5z M-535.5,291.8
		c0,2.2,1.8,5.4,6,5.4c3.5,0,5.9-2.1,5.9-5.6c0-3.3-2.2-5.4-5.7-5.4C-533.1,286.2-535.5,288.9-535.5,291.8L-535.5,291.8z"/>
	<path class="st0" d="M-714.7,106.8v33h47v-33h4v70h-4v-33h-47v33h-5v-70H-714.7z"/>
	<path class="st0" d="M-597.7,151.8H-643c0.6,12.7,9.4,21.2,21.4,21.2c7.1,0,13.4-2.6,17.5-7.2l2.4,2.7c-4.8,5.2-11.9,8.3-20.1,8.3
		c-14.6,0-25.3-10.8-25.3-26s10.7-26.1,25.3-26.1C-606.6,124.6-597.4,135.8-597.7,151.8z M-601.4,147.8
		c-0.8-11.8-8.5-19.7-20.3-19.7c-11.7,0-20.1,8-21.1,19.7H-601.4z"/>
	<path class="st0" d="M-695.5,199.4v9.4h-1.3v-9.2c0-3.2-1.9-5-5-5c-3.8,0.1-6.1,2.6-6.1,6.7v7.6h-1.3v-22h1.3v10.6
		c1-2.6,3.2-4,6.4-4.1C-697.7,193.4-695.5,195.6-695.5,199.4z"/>
	<path class="st0" d="M-676.8,201.5h-13.5c0,3.4,2.7,6.3,6.1,6.3c0.1,0,0.2,0,0.2,0c2,0.1,3.9-0.7,5.2-2.1l0.7,0.8
		c-1.6,1.6-3.7,2.5-6,2.5c-4.3-0.2-7.6-3.8-7.5-8c0.1-4.1,3.4-7.3,7.5-7.5C-679.4,193.4-676.7,196.7-676.8,201.5z M-677.9,200.4
		c-0.2-3.5-2.5-5.9-6-5.9c-3.4-0.1-6.2,2.5-6.3,5.9H-677.9z"/>
	<path class="st0" d="M-671,186.8v22h-1.3v-22H-671z"/>
	<path class="st0" d="M-663,188.9c0,0.6-0.5,1-1.1,0.9c-0.6,0-1-0.5-0.9-1.1c0-0.5,0.5-0.9,1-0.9C-663.4,187.9-663,188.4-663,188.9z
		 M-663.4,193.4v15.4h-1.2v-15.4H-663.4z"/>
	<path class="st0" d="M-644.4,193.4v15.4h-1.2v-4.1c-0.9,2.6-3.4,4.3-6.2,4.1c-3.7,0-5.9-2.3-5.9-6.1v-9.4h1.2v9.2c0,3.2,1.8,5,5,5
		c3.7-0.1,5.9-2.6,5.9-6.7v-7.6L-644.4,193.4z"/>
	<path class="st0" d="M-612.9,199.4v9.4h-1.2v-9.2c0-3.2-1.8-5-5-5c-3.7,0.1-5.9,2.6-5.9,6.7v7.6h-1.2v-9.2c0-3.2-1.9-5-5-5
		c-3.7,0.1-5.9,2.6-5.9,6.7v7.6h-1.2v-15.5h1.2v4.1c1-2.6,3.2-4,6.2-4.1s5.2,1.7,5.7,4.5c0.8-2.8,3.4-4.6,6.3-4.5
		C-615.1,193.4-612.9,195.6-612.9,199.4z"/>
	<text transform="matrix(1 0 0 1 -805.5229 44.91)" class="st0" style="font-family:'Montserrat-Regular'; font-size:42.42px;">2</text>
	<polygon class="st0" points="-820.7,0 -820.7,88 -818.7,88 -818.7,2 -508.7,2 -508.7,312 -818.7,312 -818.7,226 -820.7,226 
		-820.7,314 -506.7,314 -506.7,0 	"/>
</g>
<path class="st0" d="M-299,103.9v33h47v-33h4v70h-4v-33h-47v33h-5v-70C-304,103.9-299,103.9-299,103.9z"/>
<polygon class="st0" points="-431.7,0 -431.7,88 -429.7,88 -429.7,2 -119.7,2 -119.7,312 -429.7,312 -429.7,226 -431.7,226 
	-431.7,314 -117.7,314 -117.7,0 "/>
<text transform="matrix(1 0 0 1 -571.9995 -119.1123)" class="st0" style="font-family:'Montserrat-ExtraLight'; font-size:30.5736px;">hydrogen</text>
<text transform="matrix(1 0 0 1 -341.3332 210.0999)" class="st0" style="font-family:'Montserrat-ExtraLight'; font-size:30.5736px;">hydrogen</text>
<text transform="matrix(1 0 0 1 -418.1896 48.069)" class="st0" style="font-family:'Montserrat-ExtraLight'; font-size:48.9788px;">1</text>
<text transform="matrix(1 0 0 1 -213.3031 300.8688)" class="st0" style="font-family:'Montserrat-ExtraLight'; font-size:30.3213px;">1.008</text>
<rect x="510" y="-6" class="st1" width="326" height="326"/>
<g>
	<path class="st0" d="M0,0v314h314V0H0z M126.5,103.9h5v33h47v-33h4v70h-4v-33h-47v33h-5V103.9z M29.1,48.1h-2V15.8h-8.8v-2h10.8
		V48.1z M106.5,210.1h-1.3v-9.5c0-3.3-1.9-5.2-5.2-5.2c-3.9,0.1-6.2,2.7-6.2,6.9v7.8h-1.3v-22.7h1.3v10.9c1.1-2.7,3.3-4.1,6.5-4.2
		c3.9,0,6.2,2.4,6.2,6.2V210.1z M115.4,212.4c-1,2.4-2.5,3.7-4.4,3.7c-1.2,0-2.2-0.3-3-0.9l0.6-1.1c0.7,0.5,1.5,0.7,2.4,0.7
		c1.4,0,2.7-1,3.4-2.9l0.7-1.8l-6.6-15.9h1.3l5.9,14.4l5.7-14.4h1.3L115.4,212.4z M139.6,210.1h-1.3v-4.2c-1.2,2.6-3.7,4.3-6.8,4.3
		c-4.5,0-7.8-3.4-7.8-8c0-4.7,3.2-8.1,7.7-8.1c3.1,0,5.6,1.6,6.8,4.3v-10.9h1.3v22.6L139.6,210.1L139.6,210.1z M153.4,195.5
		c-3.5,0-5.7,2.3-5.9,6v8.6h-1.3v-15.9h1.3v4c1-2.6,3.1-4,5.9-4V195.5z M163,210.1c-4.5,0-7.9-3.3-7.9-8s3.3-8,7.9-8
		c4.6,0,7.9,3.3,7.9,8S167.6,210.1,163,210.1z M188.9,208.4c0,4.7-3,7.7-7.7,7.7c-2.5-0.1-4.6-0.9-6.5-2.6l0.7-0.9
		c1.7,1.6,3.5,2.3,5.7,2.4c3.9,0,6.5-2.5,6.5-6.5v-3c-1.1,2.5-3.5,4.1-6.5,4.1c-4.3,0-7.4-3.2-7.4-7.6c0-4.5,3.1-7.7,7.3-7.7
		c3.1,0,5.4,1.6,6.5,4.1v-4.1h1.2v14.1H188.9z M200.9,209c2.2,0,4.1-0.8,5.4-2.2l0.7,0.8c-1.5,1.6-3.6,2.5-6.2,2.5
		c-4.5,0-7.8-3.3-7.8-8s3.3-8,7.8-8c4.7,0,7.5,3.4,7.4,8.3h-13.9C194.5,206.4,197.2,209,200.9,209z M214.1,201.5v8.6h-1.3v-15.9h1.3
		v4.1c1.1-2.6,3.3-4,6.5-4.1c3.9,0,6.2,2.4,6.2,6.2v9.7h-1.3v-9.5c0-3.3-1.9-5.2-5.2-5.2C216.7,195.5,214.4,197.8,214.1,201.5z
		 M227.6,300.9h-1.2v-20H221v-1.2h6.7L227.6,300.9L227.6,300.9z M238.6,301.1c-0.6,0-1-0.5-1-1.1s0.5-1.1,1-1.1
		c0.6,0,1.1,0.5,1.1,1.1C239.7,300.6,239.2,301.1,238.6,301.1z M250.7,300.9c-5,0-7.7-3.8-7.7-10.7c0-6.8,2.7-10.6,7.7-10.6
		s7.7,3.8,7.7,10.6C258.5,297.1,255.7,300.9,250.7,300.9z M269.4,300.9c-5,0-7.7-3.8-7.7-10.7c0-6.8,2.7-10.6,7.7-10.6
		s7.7,3.8,7.7,10.6C277.2,297.1,274.4,300.9,269.4,300.9z M288.2,300.9c-4.7,0-7.6-2.2-7.6-5.9c0-2.8,1.8-4.7,4.8-5.5
		c-2.4-0.8-3.8-2.4-3.8-4.8c0-3.2,2.5-5.1,6.6-5.1s6.5,1.9,6.5,5.2c0,2.4-1.4,4-3.8,4.8c3,0.8,4.8,2.7,4.8,5.5
		C295.7,298.7,292.8,300.9,288.2,300.9z"/>
	<path class="st0" d="M181.3,195.3c-3.7,0-6.3,2.8-6.3,6.5c0,3.8,2.6,6.5,6.3,6.5s6.4-2.8,6.4-6.5S185,195.3,181.3,195.3z"/>
	<path class="st0" d="M163,195.4c-3.8,0-6.6,2.8-6.6,6.8s2.8,6.8,6.6,6.8c3.9,0,6.6-2.8,6.6-6.8C169.6,198.1,166.8,195.4,163,195.4z
		"/>
	<path class="st0" d="M250.7,280.8c-4.2,0-6.5,3.3-6.5,9.5s2.3,9.5,6.5,9.5c4.2,0,6.5-3.3,6.5-9.5
		C257.2,284.1,254.9,280.8,250.7,280.8z"/>
	<path class="st0" d="M200.9,195.3c-3.6,0-6.2,2.4-6.5,6.1h12.7C206.9,197.7,204.5,195.3,200.9,195.3z"/>
	<path class="st0" d="M131.7,195.3c-3.9,0-6.6,2.9-6.7,6.8c0,4,2.8,6.8,6.7,6.8s6.6-2.9,6.6-6.8S135.6,195.3,131.7,195.3z"/>
	<path class="st0" d="M293.6,284.8c0-2.6-2-4.1-5.4-4.1s-5.4,1.5-5.4,4.1s2.1,4.2,5.4,4.2S293.6,287.5,293.6,284.8z"/>
	<path class="st0" d="M288.1,290.2c-3.9,0-6.3,1.8-6.3,4.6c0,3.1,2.4,4.9,6.4,4.9c3.9,0,6.3-1.8,6.3-4.9
		C294.5,292,292.1,290.2,288.1,290.2z"/>
	<path class="st0" d="M269.4,280.8c-4.2,0-6.5,3.3-6.5,9.5s2.3,9.5,6.5,9.5s6.5-3.3,6.5-9.5C275.9,284.1,273.6,280.8,269.4,280.8z"
		/>
</g>
</svg>
