<?xml version="1.0" encoding="utf-8"?>
<!-- Generator: Adobe Illustrator 21.0.0, SVG Export Plug-In . SVG Version: 6.00 Build 0)  -->
<svg version="1.1" id="Periodic_Table" xmlns="http://www.w3.org/2000/svg" xmlns:xlink="http://www.w3.org/1999/xlink" x="0px"
	 y="0px" viewBox="0 0 314 314" style="enable-background:new 0 0 314 314;" xml:space="preserve">
<style type="text/css">
	.st0{fill:#FFFFFF;}
</style>
<title>Artboard 3</title>
<g>
	<polygon class="st0" points="-467,0 -467,88 -465,88 -465,2 -155,2 -155,312 -465,312 -465,226 -467,226 -467,314 -153,314 -153,0 
			"/>
	
		<text transform="matrix(1 0 0 1 -352.2902 176.9236)" class="st0" style="font-family:'Montserrat-ExtraLight'; font-size:103.4875px;">Li</text>
	
		<text transform="matrix(1 0 0 1 -362.2919 211.8)" class="st0" style="font-family:'Montserrat-ExtraLight'; font-size:29.2176px;">lithium</text>
	
		<text transform="matrix(1 0 0 1 -453.792 40.7969)" class="st0" style="font-family:'Montserrat-ExtraLight'; font-size:37.4533px;">3</text>
	
		<text transform="matrix(1 0 0 1 -240.7998 298.5997)" class="st0" style="font-family:'Montserrat-ExtraLight'; font-size:37.4533px;">6.94</text>
</g>
<g>
	<path class="st0" d="M238.8,283.4c-4.9,0-7.9,3.4-7.9,7c0,2.8,2.2,6.7,7.6,6.7c4.3,0,7.4-2.7,7.4-7
		C245.9,286,243.1,283.4,238.8,283.4z"/>
	<path class="st0" d="M267.1,273.8c-4.3,0-7.3,2.7-7.3,7c0,4.1,2.7,6.7,7,6.7c4.9,0,7.8-3.4,7.8-7
		C274.6,277.8,272.4,273.8,267.1,273.8z"/>
	<path class="st0" d="M0,0v314h314V0H0z M127.1,104.6h4.3v68.1h32.2v4.2h-36.5V104.6z M23,40.8c-3.1,0-6.3-0.9-8.6-2.4l0.8-1.3
		c2.1,1.4,4.9,2.2,7.8,2.2c5.3,0,8.4-2.7,8.4-6.4c0-3.8-3.2-5.8-8.5-5.8h-3.1V26l9.8-9.9h-14v-1.6h15.9v1.2l-9.9,10.1h1.8
		c5.7,0.1,9.6,2.7,9.6,6.9C32.9,37.6,29.1,40.8,23,40.8z M109.1,211.8h-1.2v-21.7h1.2V211.8z M116.5,211.8h-1.2v-15.2h1.2V211.8z
		 M116,193.3c-0.6,0-1-0.5-1-1.1s0.5-1.1,1-1.1c0.6,0,1,0.5,1,1.1S116.5,193.3,116,193.3z M126.6,211.8c-2.2,0-3.4-1.4-3.4-4.2V198
		H121v-1h2.2v-3.8h1.2v3.8h5.2v1.1h-5.2v9.4c0,2.2,0.8,3.2,2.4,3.2c0.9,0,1.8-0.3,2.6-0.9l0.5,1
		C128.8,211.4,127.8,211.8,126.6,211.8z M147,211.8h-1.2v-9.1c0-3.1-1.8-5-5-5c-3.8,0.1-6,2.6-6,6.6v7.5h-1.2v-21.7h1.2v10.4
		c1-2.6,3.2-3.9,6.3-4c3.7,0,5.9,2.3,5.9,6V211.8z M153.8,211.8h-1.2v-15.2h1.2V211.8z M153.2,193.3c-0.6,0-1-0.5-1-1.1
		s0.5-1.1,1-1.1c0.6,0,1,0.5,1,1.1C154.3,192.8,153.8,193.3,153.2,193.3z M172.6,211.8h-1.2v-4.1c-1,2.6-3.1,4.1-6.1,4.1
		c-3.7,0-5.8-2.2-5.8-6v-9.3h1.2v9.1c0,3.1,1.8,5,4.9,5c3.7-0.1,5.8-2.6,5.8-6.6v-7.5h1.2L172.6,211.8L172.6,211.8z M175.9,107.5
		c0-2.1,1.7-3.7,3.6-3.7c2,0,3.6,1.7,3.6,3.7c0,2.2-1.7,3.8-3.6,3.8C177.5,111.3,175.9,109.7,175.9,107.5z M177.3,123h4.2v53.9h-4.2
		V123z M203.6,211.8h-1.2v-9.1c0-3.1-1.8-5-4.9-5c-3.7,0.1-5.8,2.6-5.8,6.6v7.5h-1.2v-9.1c0-3.1-1.8-5-4.9-5
		c-3.7,0.1-5.8,2.6-5.8,6.6v7.5h-1.2v-15.2h1.2v4c1-2.6,3.1-4,6.1-4c3.1,0,5.1,1.6,5.6,4.4c0.9-2.8,3.1-4.4,6.2-4.4
		c3.7,0,5.8,2.3,5.8,6L203.6,211.8L203.6,211.8z M238.6,298.6c-6.3,0-10-4.4-10-12.5c0-8.4,4-13.9,10.5-13.9c2.3,0,5,0.7,7.2,1.8
		l-0.7,1.3c-1.9-1-4.3-1.6-6.4-1.6c-6.4,0-9.7,5.5-9,14.5c0.9-3.9,4.1-6.3,8.7-6.3c5.2,0,8.4,3.1,8.4,8.2
		C247.4,295.5,243.9,298.6,238.6,298.6z M252.7,298.9c-0.7,0-1.3-0.6-1.3-1.4c0-0.7,0.6-1.3,1.3-1.3c0.7,0,1.3,0.6,1.3,1.3
		C254,298.3,253.4,298.9,252.7,298.9z M266.5,298.6c-2.3,0-4.9-0.7-7.1-1.7l0.7-1.3c1.8,1,4.2,1.6,6.3,1.6c6.3,0,9.6-5.5,8.9-14.5
		c-1,3.9-4.1,6.2-8.6,6.2c-5.1,0-8.3-3.1-8.3-8.2c0-5.2,3.4-8.5,8.6-8.5c6.2,0,10,4.4,10,12.5C276.9,293.2,272.9,298.6,266.5,298.6z
		 M300.4,291.1H296v7.5h-1.5v-7.5H281v-1.5l10.5-17.2h1.6l-10.5,17.2h11.9v-7.8h1.5v7.8h4.4V291.1z"/>
</g>
</svg>
