<?xml version="1.0" encoding="utf-8"?>
<!-- Generator: Adobe Illustrator 21.0.0, SVG Export Plug-In . SVG Version: 6.00 Build 0)  -->
<svg version="1.1" id="Layer_1" xmlns="http://www.w3.org/2000/svg" xmlns:xlink="http://www.w3.org/1999/xlink" x="0px" y="0px"
	 viewBox="0 0 736 736" style="enable-background:new 0 0 736 736;" xml:space="preserve">
<style type="text/css">
	.st0{fill:#FFFFFF;}
</style>
<g>
	<g>
		<path class="st0" d="M368,5c49,0,96.5,9.6,141.3,28.5c43.2,18.3,82,44.5,115.4,77.8s59.5,72.2,77.8,115.4
			C721.4,271.5,731,319,731,368s-9.6,96.5-28.5,141.3c-18.3,43.2-44.5,82-77.8,115.4c-33.3,33.3-72.2,59.5-115.4,77.8
			C464.5,721.4,417,731,368,731s-96.5-9.6-141.3-28.5c-43.2-18.3-82-44.5-115.4-77.8C78,591.3,51.8,552.5,33.5,509.3
			C14.6,464.5,5,417,5,368s9.6-96.5,28.5-141.3c18.3-43.2,44.5-82,77.8-115.4s72.2-59.5,115.4-77.8C271.5,14.6,319,5,368,5 M368,0
			C164.8,0,0,164.8,0,368s164.8,368,368,368s368-164.8,368-368S571.2,0,368,0L368,0z"/>
	</g>
	<g>
		<path class="st0" d="M625.9,369.4c0,34.6-6.8,68.2-20.1,99.8c-12.9,30.5-31.4,57.9-55,81.5s-51,42-81.5,55
			c-31.7,13.4-65.2,20.1-99.8,20.1s-68.2-6.8-99.8-20.1c-30.5-12.9-57.9-31.4-81.5-55c-23.5-23.5-42-51-55-81.5
			C119.7,437.6,113,404,113,369.4s6.8-68.2,20.1-99.8c12.9-30.5,31.4-57.9,55-81.5c23.6-23.5,51-42,81.5-55
			c31.7-13.4,65.2-20.1,99.8-20.1s68.2,6.8,99.8,20.1c30.5,12.9,57.9,31.4,81.5,55c23.6,23.5,42,51,55,81.5
			C619.1,301.2,625.9,334.8,625.9,369.4 M629.4,369.4c0-143.6-116.4-260-260-260s-260,116.4-260,260s116.4,260,260,260
			S629.4,513,629.4,369.4L629.4,369.4z"/>
	</g>
	<g>
		<circle class="st0" cx="626.6" cy="369.4" r="31.8"/>
	</g>
	<g>
		<circle class="st0" cx="551.7" cy="684.3" r="31.8"/>
	</g>
	<g>
		<circle class="st0" cx="109.4" cy="369.4" r="31.8"/>
	</g>
</g>
</svg>
