<?xml version="1.0" encoding="utf-8"?>
<!-- Generator: Adobe Illustrator 21.0.0, SVG Export Plug-In . SVG Version: 6.00 Build 0)  -->
<svg version="1.1" id="Layer_1" xmlns="http://www.w3.org/2000/svg" xmlns:xlink="http://www.w3.org/1999/xlink" x="0px" y="0px"
	 viewBox="0 0 736 754.3" style="enable-background:new 0 0 736 754.3;" xml:space="preserve">
<style type="text/css">
	.st0{fill:#FFFFFF;}
</style>
<g>
	<g>
		<path class="st0" d="M-921,5c49,0,96.5,9.6,141.3,28.5c43.2,18.3,82,44.5,115.4,77.8s59.5,72.2,77.8,115.4
			C-567.6,271.5-558,319-558,368s-9.6,96.5-28.5,141.3c-18.3,43.2-44.5,82-77.8,115.4c-33.3,33.3-72.2,59.5-115.4,77.8
			C-824.5,721.4-872,731-921,731s-96.5-9.6-141.3-28.5c-43.2-18.3-82-44.5-115.4-77.8c-33.3-33.4-59.5-72.2-77.8-115.4
			c-18.9-44.8-28.5-92.3-28.5-141.3s9.6-96.5,28.5-141.3c18.3-43.2,44.5-82,77.8-115.4s72.2-59.5,115.4-77.8
			C-1017.5,14.6-970,5-921,5 M-921,0c-203.2,0-368,164.8-368,368s164.8,368,368,368s368-164.8,368-368S-717.8,0-921,0L-921,0z"/>
	</g>
	<g>
		<path class="st0" d="M-921,627.3c-34.6,0-68.2-6.8-99.8-20.1c-30.5-12.9-57.9-31.4-81.5-55s-42-51-55-81.5
			c-13.4-31.7-20.1-65.2-20.1-99.8s6.8-68.2,20.1-99.8c12.9-30.5,31.4-57.9,55-81.5c23.5-23.5,51-42,81.5-55
			c31.7-13.4,65.2-20.1,99.8-20.1c34.6,0,68.2,6.8,99.8,20.1c30.5,12.9,57.9,31.4,81.5,55c23.5,23.6,42,51,55,81.5
			c13.4,31.7,20.1,65.2,20.1,99.8s-6.8,68.2-20.1,99.8c-12.9,30.5-31.4,57.9-55,81.5c-23.5,23.6-51,42-81.5,55
			C-852.9,620.5-886.4,627.3-921,627.3 M-921,630.8c143.6,0,260-116.4,260-260s-116.4-260-260-260s-260,116.4-260,260
			S-1064.6,630.8-921,630.8L-921,630.8z"/>
	</g>
	<g>
		<circle class="st0" cx="-921" cy="628" r="31.8"/>
	</g>
	<g>
		<circle class="st0" cx="-600.4" cy="543.3" r="31.8"/>
	</g>
	<g>
		<circle class="st0" cx="-1241.7" cy="543.3" r="31.8"/>
	</g>
	<g>
		<circle class="st0" cx="-921" cy="110.8" r="31.8"/>
	</g>
	<g>
		<circle class="st0" cx="-921" cy="2.6" r="31.8"/>
	</g>
</g>
<g>
	<g>
		<path class="st0" d="M368,56.1c42.1,0,82.9,8.2,121.4,24.5c37.1,15.7,70.5,38.2,99.2,66.9s51.1,62,66.9,99.2
			c16.2,38.5,24.5,79.3,24.5,121.4s-8.2,82.9-24.5,121.4c-15.7,37.1-38.2,70.5-66.9,99.2c-28.6,28.6-62,51.1-99.2,66.9
			c-38.5,16.2-79.3,24.5-121.4,24.5s-82.9-8.2-121.4-24.5c-37.1-15.7-70.5-38.2-99.2-66.9c-28.6-28.7-51.1-62-66.9-99.2
			C64.3,450.9,56.1,410.1,56.1,368s8.2-82.9,24.5-121.4c15.7-37.1,38.2-70.5,66.9-99.2s62-51.1,99.2-66.9
			C285.1,64.3,325.9,56.1,368,56.1 M368,51.8C193.4,51.8,51.8,193.4,51.8,368S193.4,684.2,368,684.2S684.2,542.6,684.2,368
			S542.6,51.8,368,51.8L368,51.8z"/>
	</g>
	<g>
		<path class="st0" d="M368,5c49,0,96.5,9.6,141.3,28.5c43.2,18.3,82,44.5,115.4,77.8s59.5,72.2,77.8,115.4
			C721.4,271.5,731,319,731,368s-9.6,96.5-28.5,141.3c-18.3,43.2-44.5,82-77.8,115.4c-33.3,33.3-72.2,59.5-115.4,77.8
			C464.5,721.4,417,731,368,731s-96.5-9.6-141.3-28.5c-43.2-18.3-82-44.5-115.4-77.8C78,591.3,51.8,552.5,33.5,509.3
			C14.6,464.5,5,417,5,368s9.6-96.5,28.5-141.3c18.3-43.2,44.5-82,77.8-115.4s72.2-59.5,115.4-77.8C271.5,14.6,319,5,368,5 M368,0
			C164.8,0,0,164.8,0,368s164.8,368,368,368s368-164.8,368-368S571.2,0,368,0L368,0z"/>
	</g>
	<g>
		<path class="st0" d="M226.9,585.3c-29-18.9-53.4-43-72.5-71.5c-18.5-27.5-31.3-58-38.2-90.6c-6.9-32.6-7.3-65.7-1.4-98.3
			c6.1-33.8,18.8-65.6,37.8-94.6s43-53.4,71.5-72.5c27.5-18.5,58-31.3,90.6-38.2c32.6-6.8,65.7-7.3,98.3-1.4
			c33.8,6.1,65.6,18.8,94.6,37.8c29,18.9,53.4,43,72.5,71.5c18.5,27.5,31.3,58,38.2,90.6c6.8,32.6,7.3,65.7,1.4,98.3
			c-6.1,33.8-18.8,65.6-37.8,94.6s-43,53.4-71.5,72.5c-27.5,18.5-58,31.3-90.6,38.2c-32.6,6.9-65.7,7.3-98.3,1.4
			C287.7,616.9,255.9,604.2,226.9,585.3 M225,588.2c120.2,78.5,281.3,44.8,359.9-75.4s44.8-281.3-75.4-359.9s-281.3-44.8-359.9,75.4
			S104.8,509.7,225,588.2L225,588.2z"/>
	</g>
	<g>
		
			<ellipse transform="matrix(0.5471 -0.8371 0.8371 0.5471 -387.8149 454.975)" class="st0" cx="226.5" cy="585.9" rx="31.8" ry="31.8"/>
	</g>
	<g>
		<circle class="st0" cx="704.2" cy="223.9" r="31.8"/>
	</g>
	<g>
		<circle class="st0" cx="652.4" cy="499.8" r="31.8"/>
	</g>
	<g>
		<circle class="st0" cx="462.4" cy="722.5" r="31.8"/>
	</g>
	<g>
		<circle class="st0" cx="47.4" cy="543.3" r="31.8"/>
	</g>
	<g>
		
			<ellipse transform="matrix(0.5471 -0.8371 0.8371 0.5471 102.7064 495.7407)" class="st0" cx="509.5" cy="153" rx="31.8" ry="31.8"/>
	</g>
	<g>
		<circle class="st0" cx="200.7" cy="44" r="31.8"/>
	</g>
	<g>
		<circle class="st0" cx="79.1" cy="243.4" r="31.8"/>
	</g>
</g>
<image style="overflow:visible;" width="450" height="470" xlink:href="BB1941A9.jpg"  transform="matrix(1 0 0 1 1208.5109 -29.2018)">
</image>
</svg>
