<?xml version="1.0" encoding="utf-8"?>
<!-- Generator: Adobe Illustrator 21.0.0, SVG Export Plug-In . SVG Version: 6.00 Build 0)  -->
<svg version="1.1" id="Periodic_Table" xmlns="http://www.w3.org/2000/svg" xmlns:xlink="http://www.w3.org/1999/xlink" x="0px"
	 y="0px" viewBox="0 0 314 314" style="enable-background:new 0 0 314 314;" xml:space="preserve">
<style type="text/css">
	.st0{fill:#FFFFFF;}
</style>
<title>Artboard 3</title>
<polygon class="st0" points="-917,0 -917,88 -915,88 -915,2 -605,2 -605,312 -915,312 -915,226 -917,226 -917,314 -603,314 -603,0 
	"/>
<text transform="matrix(1 0 0 1 -805.7924 173.423)" class="st0" style="font-family:'Montserrat-ExtraLight'; font-size:103.4875px;">O</text>
<text transform="matrix(1 0 0 1 -811.7925 211.8)" class="st0" style="font-family:'Montserrat-ExtraLight'; font-size:29.2176px;">oxygen</text>
<text transform="matrix(0.9719 0 0 1 -903.7925 40.7969)" class="st0" style="font-family:'Montserrat-ExtraLight'; font-size:37.4533px;">8</text>
<text transform="matrix(1 0 0 1 -740.6667 298.5997)" class="st0" style="font-family:'Montserrat-ExtraLight'; font-size:37.4533px;">15.999</text>
<polygon class="st0" points="-1436.1,0 -1436.1,88 -1434.1,88 -1434.1,2 -1124.1,2 -1124.1,312 -1434.1,312 -1434.1,226 
	-1436.1,226 -1436.1,314 -1122.1,314 -1122.1,0 "/>
<text transform="matrix(1 0 0 1 -1317.8428 173.423)" class="st0" style="font-family:'Montserrat-ExtraLight'; font-size:103.4875px;">B</text>
<text transform="matrix(1 0 0 1 -1324.8445 211.8)" class="st0" style="font-family:'Montserrat-ExtraLight'; font-size:29.2176px;">boron</text>
<text transform="matrix(0.9719 0 0 1 -1422.8442 40.7969)" class="st0" style="font-family:'Montserrat-ExtraLight'; font-size:37.4533px;">5</text>
<text transform="matrix(1 0 0 1 -1227.7186 298.5997)" class="st0" style="font-family:'Montserrat-ExtraLight'; font-size:37.4533px;">10.81</text>
<g>
	<path class="st0" d="M114.1,197.7c-3.7,0-6.3,2.7-6.3,6.5c0,3.9,2.7,6.5,6.3,6.5c3.7,0,6.3-2.7,6.3-6.5S117.8,197.7,114.1,197.7z"
		/>
	<path class="st0" d="M24.4,27.6c-4.7,0-7.6,2.2-7.6,5.7c0,3.8,2.9,6.1,7.6,6.1s7.6-2.2,7.6-6C32.1,29.8,29.2,27.6,24.4,27.6z"/>
	<path class="st0" d="M177.3,197.7c-3.4,0-5.9,2.3-6.2,5.8h12.2C183,200,180.7,197.7,177.3,197.7z"/>
	<path class="st0" d="M158.6,197.7c-3.5,0-6,2.6-6,6.3c0,3.6,2.5,6.2,6,6.2s6.1-2.6,6.1-6.2C164.6,200.3,162.1,197.7,158.6,197.7z"
		/>
	<path class="st0" d="M153.4,169.3c18.1,0,33-14.4,33-32.1s-14.9-32-33-32s-33,14.3-33,32C120.4,154.9,135.3,169.3,153.4,169.3z"/>
	<path class="st0" d="M30.9,21c0-3.2-2.4-5.1-6.5-5.1c-4,0-6.5,1.9-6.5,5.1c0,3.3,2.5,5.2,6.5,5.2C28.5,26.2,30.9,24.2,30.9,21z"/>
	<path class="st0" d="M286.6,273.8c-4.3,0-7.3,2.7-7.3,7c0,4.1,2.7,6.7,7,6.7c4.9,0,7.8-3.4,7.8-7
		C294.1,277.8,291.8,273.8,286.6,273.8z"/>
	<path class="st0" d="M240.4,273.8c-4.3,0-7.3,2.7-7.3,7c0,4.1,2.7,6.7,7,6.7c4.9,0,7.8-3.4,7.8-7
		C247.9,277.8,245.6,273.8,240.4,273.8z"/>
	<path class="st0" d="M0,0v314h314V0H0z M153.4,101c20.7,0,37.5,16.1,37.5,36.2s-16.8,36.3-37.5,36.3s-37.5-16.2-37.5-36.3
		S132.7,101,153.4,101z M24.5,40.8c-5.6,0-9.1-2.7-9.1-7.3c0-3.5,2.2-5.8,5.8-6.8c-2.9-1-4.6-3-4.6-5.9c0-4,3-6.3,7.9-6.3
		s7.9,2.4,7.9,6.4c0,3-1.7,4.9-4.6,5.9c3.6,0.9,5.8,3.3,5.8,6.7C33.5,38.1,30.1,40.8,24.5,40.8z M114.1,211.8
		c-4.3,0-7.5-3.2-7.5-7.7s3.2-7.6,7.5-7.6c4.4,0,7.5,3.2,7.5,7.6C121.6,208.7,118.5,211.8,114.1,211.8z M134.5,211.8l-5.1-6.9
		l-5.1,6.9h-1.4l5.8-7.9l-5.3-7.4h1.4l4.7,6.5l4.7-6.5h1.4l-5.3,7.4l5.7,7.9H134.5z M143.4,214c-0.9,2.3-2.4,3.5-4.2,3.5
		c-1.1,0-2.1-0.3-2.9-0.9l0.5-1.1c0.7,0.5,1.5,0.7,2.3,0.7c1.4,0,2.5-1,3.3-2.7l0.7-1.7l-6.3-15.2h1.3l5.6,13.8l5.5-13.8h1.3
		L143.4,214z M165.8,210.1c0,4.5-2.9,7.4-7.4,7.3c-2.4-0.1-4.4-0.9-6.2-2.5l0.6-0.9c1.6,1.5,3.3,2.2,5.5,2.3c3.8,0,6.2-2.4,6.2-6.2
		v-2.9c-1.1,2.4-3.3,3.9-6.2,3.9c-4.1,0-7-3.1-7-7.3c0-4.3,3-7.3,7-7.3c2.9,0,5.2,1.5,6.3,3.9v-3.9h1.2L165.8,210.1L165.8,210.1z
		 M169.8,204.2c0-4.5,3.1-7.7,7.4-7.7c4.5,0,7.2,3.3,7.1,8H171c0.2,3.7,2.7,6.2,6.3,6.2c2.1,0,3.9-0.8,5.1-2.1l0.7,0.8
		c-1.4,1.5-3.5,2.4-5.9,2.4C173,211.8,169.8,208.7,169.8,204.2z M189.1,298.6h-1.5v-24.7h-6.7v-1.5h8.2V298.6z M195.8,197.8
		c-3.5,0.1-5.7,2.3-5.9,5.8v8.2h-1.2v-15.2h1.2v3.9c1-2.5,3.2-3.9,6.2-3.9c3.7,0,5.9,2.3,5.9,6v9.3h-1.2v-9.1
		C200.8,199.6,199,197.8,195.8,197.8z M210.5,298.6c-2.9,0-6.4-1.1-8.9-2.7l0.7-1.3c2.4,1.5,5.6,2.5,8.1,2.5c4.8,0,7.9-2.7,7.9-6.9
		c0-3.6-3.1-6-7.8-6c-2,0-4.9,0.5-7,1.1v-12.9h15.4v1.5H205v9.6c1.8-0.5,4.1-0.8,5.7-0.8c5.6,0,9.3,3,9.3,7.5
		C219.9,295.3,216.1,298.6,210.5,298.6z M225.9,298.9c-0.7,0-1.3-0.6-1.3-1.4c0-0.7,0.6-1.3,1.3-1.3s1.3,0.6,1.3,1.3
		C227.2,298.3,226.6,298.9,225.9,298.9z M239.7,298.6c-2.3,0-4.9-0.7-7.1-1.7l0.7-1.3c1.8,1,4.2,1.6,6.3,1.6c6.3,0,9.6-5.5,8.9-14.5
		c-1,3.9-4.1,6.2-8.6,6.2c-5.1,0-8.3-3.1-8.3-8.2c0-5.2,3.4-8.5,8.6-8.5c6.2,0,10,4.4,10,12.5C250.2,293.2,246.2,298.6,239.7,298.6z
		 M262.9,298.6c-2.3,0-4.9-0.7-7.1-1.7l0.7-1.3c1.8,1,4.2,1.6,6.3,1.6c6.3,0,9.6-5.5,8.9-14.5c-1,3.9-4.1,6.2-8.6,6.2
		c-5.1,0-8.3-3.1-8.3-8.2c0-5.2,3.4-8.5,8.6-8.5c6.2,0,10,4.4,10,12.5C273.3,293.2,269.3,298.6,262.9,298.6z M286,298.6
		c-2.3,0-4.9-0.7-7.1-1.7l0.7-1.3c1.8,1,4.2,1.6,6.3,1.6c6.3,0,9.6-5.5,8.9-14.5c-1,3.9-4.1,6.2-8.6,6.2c-5.1,0-8.3-3.1-8.3-8.2
		c0-5.2,3.4-8.5,8.6-8.5c6.2,0,10,4.4,10,12.5C296.4,293.2,292.4,298.6,286,298.6z"/>
	<path class="st0" d="M263.5,273.8c-4.3,0-7.3,2.7-7.3,7c0,4.1,2.7,6.7,7,6.7c4.9,0,7.8-3.4,7.8-7
		C271,277.8,268.7,273.8,263.5,273.8z"/>
</g>
</svg>
